<svg width="239" height="203" viewBox="0 0 239 203" fill="none" xmlns="http://www.w3.org/2000/svg">
<path d="M0 18.4545C0 10.5197 0 6.55229 2.12478 3.83714C2.62409 3.19909 3.19909 2.62409 3.83714 2.12478C6.55229 0 10.5197 0 18.4545 0H137.5C138.893 0 139.589 0 140.178 0.00693947C194.485 0.646755 238.353 44.5151 238.993 98.8219C239 99.4109 239 100.107 239 101.5V101.5C239 102.893 239 103.589 238.993 104.178C238.353 158.485 194.485 202.353 140.178 202.993C139.589 203 138.893 203 137.5 203H119.5C101.385 203 92.3274 203 84.7445 201.83C41.6428 195.176 7.82375 161.357 1.1705 118.255C0 110.673 0 101.615 0 83.5V18.4545Z" fill="url(#paint0_linear_1_4)"/>
<path d="M75.4815 154V44.9091H98.5462V93.0092H99.9844L139.242 44.9091H166.888L126.405 93.755L167.367 154H139.775L109.892 109.149L98.5462 122.999V154H75.4815Z" fill="#F5F5F5"/>
<defs>
<linearGradient id="paint0_linear_1_4" x1="119.5" y1="0" x2="119.5" y2="203" gradientUnits="userSpaceOnUse">
<stop stop-color="#50A8A2"/>
<stop offset="0.356" stop-color="#62E3B1"/>
</linearGradient>
</defs>
</svg>
